<?xml version="1.0" ?><svg id="Multicolor" viewBox="0 0 100 112" xmlns="http://www.w3.org/2000/svg"><defs><style>.cls-1{fill:#fff0ed;}.cls-2{fill:#45413c;fill-opacity:0.15;}.cls-3{fill:#fff;}.cls-4{fill:#e0366f;}.cls-5{fill:#ff6196;}.cls-6{fill:#ff87af;}.cls-7{fill:#ff866e;}.cls-8{fill:#ff6242;}.cls-9{fill:#e04122;}.cls-10{fill:none;}.cls-10,.cls-11{stroke:#45413c;stroke-linecap:round;stroke-linejoin:round;}.cls-11{fill:#2d86fa;}</style></defs><title/><g id="Scene"><g data-name="New Symbol 1" id="New_Symbol_1-62"><circle class="cls-1" cx="50.021" cy="55.948" r="40"/></g><ellipse class="cls-2" cx="50.022" cy="82.872" rx="15.525" ry="1.725"/><rect class="cls-3" height="40.449" rx="1" ry="1" width="64.35" x="17.847" y="30.723"/><path class="cls-4" d="M18.847,30.723H81.2a1,1,0,0,1,1,1V34.4a0,0,0,0,1,0,0H17.847a0,0,0,0,1,0,0V31.723A1,1,0,0,1,18.847,30.723Z"/><rect class="cls-5" height="3.679" width="64.35" x="17.847" y="38.077"/><rect class="cls-6" height="3.679" width="64.35" x="17.847" y="45.431"/><rect class="cls-7" height="3.679" width="64.35" x="17.847" y="52.785"/><rect class="cls-8" height="3.679" width="64.35" x="17.847" y="60.139"/><path class="cls-9" d="M17.847,67.493H82.2a0,0,0,0,1,0,0v2.679a1,1,0,0,1-1,1H18.847a1,1,0,0,1-1-1V67.493A0,0,0,0,1,17.847,67.493Z"/><rect class="cls-10" height="40.449" rx="1" ry="1" width="64.35" x="17.847" y="30.723"/><path class="cls-11" d="M18.847,30.724H46.31a0,0,0,0,1,0,0V50.335a0,0,0,0,1,0,0H17.847a0,0,0,0,1,0,0V31.724A1,1,0,0,1,18.847,30.724Z"/><path class="cls-3" d="M22.007,32.186a.2.2,0,0,1,.171-.1.2.2,0,0,1,.172.1L23,33.269l1.231.285a.2.2,0,0,1,.106.326l-.828.954.109,1.259a.2.2,0,0,1-.277.2L22.178,35.8l-1.163.493a.2.2,0,0,1-.2-.022.2.2,0,0,1-.081-.179l.109-1.259-.829-.954a.2.2,0,0,1,.106-.326l1.231-.285Z"/><path class="cls-3" d="M22.007,38.314a.2.2,0,0,1,.171-.1.2.2,0,0,1,.172.1L23,39.4l1.231.285a.2.2,0,0,1,.106.326l-.828.954.109,1.259a.2.2,0,0,1-.277.2l-1.164-.493-1.163.493a.2.2,0,0,1-.2-.023.2.2,0,0,1-.081-.179l.109-1.259-.829-.954a.2.2,0,0,1,.106-.326l1.231-.285Z"/><path class="cls-3" d="M26.957,35.25a.2.2,0,0,1,.171-.1.2.2,0,0,1,.172.1l.651,1.083,1.231.285a.2.2,0,0,1,.106.326l-.828.954.109,1.259a.2.2,0,0,1-.277.2l-1.164-.492-1.163.492a.2.2,0,0,1-.2-.022.2.2,0,0,1-.081-.179L25.8,37.9l-.829-.954a.2.2,0,0,1,.106-.326l1.231-.285Z"/><path class="cls-3" d="M26.957,41.379a.2.2,0,0,1,.171-.1.2.2,0,0,1,.172.1l.651,1.082,1.231.285a.2.2,0,0,1,.106.326l-.828.955.109,1.258a.2.2,0,0,1-.277.2l-1.164-.493-1.163.493a.2.2,0,0,1-.2-.022.2.2,0,0,1-.081-.18l.109-1.258-.829-.955a.2.2,0,0,1,.106-.326l1.231-.285Z"/><path class="cls-3" d="M22.007,44.443a.2.2,0,0,1,.171-.1.2.2,0,0,1,.172.1L23,45.526l1.231.285a.2.2,0,0,1,.145.133.2.2,0,0,1-.039.193l-.828.954.109,1.259a.2.2,0,0,1-.277.2l-1.164-.493-1.163.493a.2.2,0,0,1-.2-.022.2.2,0,0,1-.081-.179l.109-1.259-.829-.954a.2.2,0,0,1-.039-.193.2.2,0,0,1,.145-.133l1.231-.285Z"/><path class="cls-3" d="M31.907,32.186a.2.2,0,0,1,.171-.1.2.2,0,0,1,.172.1l.651,1.083,1.231.285a.2.2,0,0,1,.106.326l-.828.954.109,1.259a.2.2,0,0,1-.277.2L32.078,35.8l-1.163.493a.2.2,0,0,1-.277-.2l.109-1.259-.828-.954a.2.2,0,0,1,.105-.326l1.231-.285Z"/><path class="cls-3" d="M31.907,38.314a.2.2,0,0,1,.171-.1.2.2,0,0,1,.172.1L32.9,39.4l1.231.285a.2.2,0,0,1,.106.326l-.828.954.109,1.259a.2.2,0,0,1-.277.2l-1.164-.493-1.163.493a.2.2,0,0,1-.277-.2l.109-1.259-.828-.954a.2.2,0,0,1,.105-.326l1.231-.285Z"/><path class="cls-3" d="M36.857,35.25a.2.2,0,0,1,.343,0l.651,1.083,1.231.285a.2.2,0,0,1,.106.326l-.828.954.109,1.259a.2.2,0,0,1-.277.2l-1.164-.492-1.163.492a.2.2,0,0,1-.277-.2L35.7,37.9l-.828-.954a.2.2,0,0,1,.1-.326l1.231-.285Z"/><path class="cls-3" d="M36.857,41.379a.2.2,0,0,1,.343,0l.651,1.082,1.231.285a.2.2,0,0,1,.106.326l-.828.955.109,1.258a.2.2,0,0,1-.277.2l-1.164-.493-1.163.493a.2.2,0,0,1-.277-.2l.109-1.258-.828-.955a.2.2,0,0,1,.1-.326l1.231-.285Z"/><path class="cls-3" d="M31.907,44.443a.2.2,0,0,1,.171-.1.2.2,0,0,1,.172.1l.651,1.083,1.231.285a.2.2,0,0,1,.145.133.2.2,0,0,1-.039.193l-.828.954.109,1.259a.2.2,0,0,1-.277.2l-1.164-.493-1.163.493a.2.2,0,0,1-.277-.2l.109-1.259-.828-.954a.2.2,0,0,1-.04-.193.2.2,0,0,1,.145-.133l1.231-.285Z"/><path class="cls-3" d="M41.807,32.186a.2.2,0,0,1,.343,0l.651,1.083,1.231.285a.2.2,0,0,1,.106.326l-.828.954.109,1.259a.2.2,0,0,1-.277.2L41.978,35.8l-1.163.493a.2.2,0,0,1-.277-.2l.109-1.259-.828-.954a.2.2,0,0,1,.1-.326l1.231-.285Z"/><path class="cls-3" d="M41.807,38.314a.2.2,0,0,1,.343,0L42.8,39.4l1.231.285a.2.2,0,0,1,.106.326l-.828.954.109,1.259a.2.2,0,0,1-.277.2l-1.164-.493-1.163.493a.2.2,0,0,1-.277-.2l.109-1.259-.828-.954a.2.2,0,0,1,.1-.326l1.231-.285Z"/><path class="cls-3" d="M41.807,44.443a.2.2,0,0,1,.343,0l.651,1.083,1.231.285a.2.2,0,0,1,.145.133.2.2,0,0,1-.039.193l-.828.954.109,1.259a.2.2,0,0,1-.277.2l-1.164-.493-1.163.493a.2.2,0,0,1-.277-.2l.109-1.259-.828-.954a.2.2,0,0,1-.04-.193.2.2,0,0,1,.145-.133l1.231-.285Z"/></g></svg>